<svg width="25" height="31" viewBox="0 0 25 31" fill="none" xmlns="http://www.w3.org/2000/svg">
<path d="M20.7744 16.2132C20.7895 15.0447 21.1007 13.899 21.6792 12.8826C22.2577 11.8663 23.0845 11.0124 24.0828 10.4004C23.4486 9.49713 22.612 8.75381 21.6393 8.22944C20.6666 7.70506 19.5847 7.41408 18.4795 7.3796C16.122 7.13283 13.8365 8.78636 12.6351 8.78636C11.4105 8.78636 9.56082 7.4041 7.56903 7.44496C6.28067 7.48647 5.02508 7.86007 3.92457 8.52935C2.82406 9.19863 1.91617 10.1408 1.28936 11.264C-1.42584 15.9518 0.599453 22.8412 3.20039 26.6305C4.50169 28.486 6.02254 30.5586 8.01254 30.4851C9.95988 30.4046 10.6872 29.2468 13.0378 29.2468C15.3666 29.2468 16.0489 30.4851 18.0793 30.4384C20.1689 30.4046 21.4854 28.5746 22.741 26.7016C23.676 25.3795 24.3955 23.9183 24.8728 22.3721C23.6588 21.8601 22.6228 21.003 21.894 19.9078C21.1652 18.8126 20.7758 17.5277 20.7744 16.2132Z" fill="white"/>
<path d="M16.9407 4.88687C18.0801 3.52298 18.6414 1.76993 18.5055 0C16.7648 0.182309 15.157 1.01189 14.0022 2.32345C13.4377 2.96419 13.0053 3.7096 12.7297 4.51707C12.4542 5.32455 12.341 6.17826 12.3966 7.0294C13.2672 7.03834 14.1285 6.85016 14.9156 6.47904C15.7028 6.10792 16.3952 5.56353 16.9407 4.88687Z" fill="white"/>
</svg>