<svg width="33" height="37" viewBox="0 0 33 37" fill="none" xmlns="http://www.w3.org/2000/svg">
<path d="M0.664022 0.571635C0.202679 1.1171 -0.0327186 1.81828 0.00602071 2.53163V33.4996C-0.0416157 34.2142 0.194873 34.9186 0.664022 35.4596L0.762022 35.5716L18.108 18.2256V17.8056L0.762022 0.473633L0.664022 0.571635Z" fill="url(#paint0_linear_17_13)"/>
<path d="M23.8455 24.0074L18.1055 18.2254V17.8054L23.8455 12.0234L23.9715 12.1074L30.8455 15.9994C32.8055 17.1054 32.8055 18.9254 30.8455 20.0454L23.9995 23.9374L23.8455 24.0074Z" fill="url(#paint1_linear_17_13)"/>
<path d="M24.0161 23.9246L18.1081 18.0166L0.664062 35.4606C1.05967 35.8127 1.56603 36.0153 2.09536 36.0332C2.62468 36.0511 3.14357 35.8832 3.56206 35.5586L24.0161 23.9246Z" fill="url(#paint2_linear_17_13)"/>
<path d="M24.0161 12.1067L3.56206 0.486702C3.1463 0.157582 2.62781 -0.0144166 2.09776 0.000946943C1.56772 0.0163105 1.06007 0.218054 0.664062 0.570704L18.1081 18.0147L24.0161 12.1067Z" fill="url(#paint3_linear_17_13)"/>
<path opacity="0.2" d="M23.8481 23.7979L3.56206 35.3479C3.15878 35.6522 2.6673 35.8169 2.16206 35.8169C1.65682 35.8169 1.16534 35.6522 0.762062 35.3479L0.664062 35.4459L0.762062 35.5578C1.16534 35.8622 1.65682 36.0269 2.16206 36.0269C2.6673 36.0269 3.15878 35.8622 3.56206 35.5578L24.0161 23.9239L23.8481 23.7979Z" fill="black"/>
<path opacity="0.12" d="M0.663095 35.2631C0.213407 34.7078 -0.00697099 34.0016 0.0470943 33.2891V33.4991C-0.000542127 34.2136 0.235944 34.918 0.705093 35.4591L0.803096 35.3611L0.663095 35.2631Z" fill="black"/>
<path opacity="0.12" d="M30.8477 19.8366L23.8477 23.7986L23.9737 23.9246L30.8477 20.0326C31.2534 19.861 31.6054 19.5832 31.8666 19.2284C32.1277 18.8737 32.2884 18.455 32.3317 18.0166C32.2441 18.415 32.0642 18.7873 31.8065 19.1034C31.5487 19.4195 31.2203 19.6707 30.8477 19.8366Z" fill="black"/>
<path opacity="0.25" d="M3.55991 0.683205L30.8459 16.1952C31.2185 16.3611 31.547 16.6123 31.8047 16.9284C32.0625 17.2445 32.2424 17.6168 32.3299 18.0152C32.2867 17.5768 32.126 17.1581 31.8648 16.8034C31.6037 16.4486 31.2517 16.1708 30.8459 15.9992L3.55991 0.487203C1.61391 -0.632797 0.00390625 0.291205 0.00390625 2.5312V2.7412C0.0459063 0.501204 1.61391 -0.422795 3.55991 0.683205Z" fill="white"/>
<defs>
<linearGradient id="paint0_linear_17_13" x1="16.568" y1="2.20963" x2="-6.92398" y2="25.7016" gradientUnits="userSpaceOnUse">
<stop stop-color="#00A0FF"/>
<stop offset="0.01" stop-color="#00A1FF"/>
<stop offset="0.26" stop-color="#00BEFF"/>
<stop offset="0.51" stop-color="#00D2FF"/>
<stop offset="0.76" stop-color="#00DFFF"/>
<stop offset="1" stop-color="#00E3FF"/>
</linearGradient>
<linearGradient id="paint1_linear_17_13" x1="33.4075" y1="18.0154" x2="-0.458525" y2="18.0154" gradientUnits="userSpaceOnUse">
<stop stop-color="#FFE000"/>
<stop offset="0.41" stop-color="#FFBD00"/>
<stop offset="0.78" stop-color="#FFA500"/>
<stop offset="1" stop-color="#FF9C00"/>
</linearGradient>
<linearGradient id="paint2_linear_17_13" x1="20.8101" y1="21.2366" x2="-11.0539" y2="53.0866" gradientUnits="userSpaceOnUse">
<stop stop-color="#FF3A44"/>
<stop offset="1" stop-color="#C31162"/>
</linearGradient>
<linearGradient id="paint3_linear_17_13" x1="-3.73194" y1="-9.73329" x2="10.4921" y2="4.4907" gradientUnits="userSpaceOnUse">
<stop stop-color="#32A071"/>
<stop offset="0.07" stop-color="#2DA771"/>
<stop offset="0.48" stop-color="#15CF74"/>
<stop offset="0.8" stop-color="#06E775"/>
<stop offset="1" stop-color="#00F076"/>
</linearGradient>
</defs>
</svg>